<svg
  xmlns="http://www.w3.org/2000/svg"
  xmlns:xlink="http://www.w3.org/1999/xlink"
  viewBox="0 0 290.45 290.45"
>
  <path fill="#ffffff" class="cls-1" d="M145.23,0C65.14,0,0,65.15,0,145.23S65.14,290.45,145.23,290.45,290.45,225.3,290.45,145.23,225.3,0,145.23,0Zm24,13.54c-20,11.48,3-1.71-100,57.55-11.55-10.4-29.95-2.15-29.95,13.34a18,18,0,1,0,35.63-3.21L185.57,17.56a134.47,134.47,0,0,1,72.9,56.38l-97.73,56.22A17.94,17.94,0,0,0,131,143.73a17.43,17.43,0,0,0,.32,3.34C21,210.57,38.61,200.43,26.65,207.3a133.3,133.3,0,0,1-13-37.59L176.4,76.07C188,86.12,206.1,77.86,206.1,62.5a18,18,0,1,0-35.58,3.56L11.91,157.29C4.07,68.75,82.55-2.26,169.27,13.54ZM47.88,83.37A9.43,9.43,0,1,1,54,93.27,9.29,9.29,0,0,1,47.88,83.37Zm91.65,60.36a10,10,0,0,1,.15-1.45,9.44,9.44,0,0,1,18.77,1.45,8,8,0,0,1-.11,1.21,9.44,9.44,0,0,1-18.81-1.21ZM197.44,64a9.42,9.42,0,1,1-5.61-10.18A9.39,9.39,0,0,1,197.44,64ZM125.09,277.59l95.85-55.13c12.8,10.9,32.32-.41,29.28-16.85a17.94,17.94,0,0,0-5.65-10.15c-12.89-11.64-33.15,0-29.6,17L108.25,273.88A134.44,134.44,0,0,1,32.5,217.33l104.6-60.16a18,18,0,0,0,29.52-17L264.25,84A133.14,133.14,0,0,1,277,121.48L117.77,213.05c-11.6-10.25-29.84-2-29.84,13.45a17.91,17.91,0,0,0,6.2,13.55c12.7,11,32.64-.08,29.41-16.91l155.06-89.2C285.86,220.61,210.16,290.49,125.09,277.59Zm116.76-67.16a9.43,9.43,0,1,1-5.44-10.28A9.41,9.41,0,0,1,241.85,210.43ZM96.56,225.25a9.42,9.42,0,1,1,5.86,10A9.3,9.3,0,0,1,96.56,225.25Z" />
</svg>